<?xml version="1.0" encoding="UTF-8" standalone="no"?>
<!DOCTYPE svg PUBLIC "-//W3C//DTD SVG 20010904//EN" "http://www.w3.org/TR/2001/REC-SVG-20010904/DTD/svg10.dtd">
<svg version="1.0" xmlns="http://www.w3.org/2000/svg" width="640.000000pt" height="1280.000000pt" viewBox="0 0 640.000000 1280.000000" preserveAspectRatio="xMidYMid meet">
<metadata>
Created by potrace 1.15, written by Peter Selinger 2001-2017
</metadata>
<g transform="translate(0.000000,1280.000000) scale(0.100000,-0.100000)" fill="#000000" stroke="none">
<path d="M3305 12793 c-519 -27 -1537 -228 -2050 -403 -148 -50 -334 -141 -380 -185 l-35 -32 0 -164 c0 -253 -23 -415 -116 -829 -197 -872 -263 -1359 -251 -1850 10 -394 75 -714 247 -1215 195 -568 305 -796 508 -1053 79 -101 271 -288 380 -371 180 -136 455 -292 579 -326 l61 -17 40 -87 c97 -211 182 -528 287 -1076 233 -1218 378 -2142 387 -2479 l3 -99 -210 -52 c-592 -147 -1042 -314 -1344 -497 -258 -157 -478 -368 -583 -563 -57 -104 -88 -185 -88 -228 0 -81 30 -237 60 -315 174 -451 686 -735 1655 -918 249 -46 730 -44 1110 7 799 106 1420 380 1919 846 141 132 250 279 336 451 173 349 132 658 -125 931 -124 131 -447 295 -965 491 -113 42 -221 83 -242 89 -35 12 -41 9 -205 -72 -92 -47 -188 -96 -212 -110 l-44 -25 89 -27 c343 -102 691 -247 984 -410 94 -52 132 -80 185 -137 291 -308 298 -653 22 -1065 -92 -139 -207 -253 -386 -383 -80 -58 -164 -122 -188 -144 -34 -31 -67 -46 -165 -77 -443 -142 -1006 -223 -1423 -204 -274 12 -710 99 -1015 202 -315 107 -538 232 -701 393 -169 167 -254 354 -266 585 -5 106 -4 113 26 190 105 263 213 419 349 506 127 80 636 228 1188 344 117 25 223 45 235 45 l22 0 -6 -272 c-6 -261 -17 -370 -45 -439 -6 -15 -47 -89 -92 -164 -92 -155 -133 -237 -128 -261 9 -43 261 -81 436 -64 104 10 94 5 276 123 160 104 159 92 4 158 -55 23 -102 49 -105 57 -5 11 17 666 30 935 l2 39 150 80 c83 43 154 83 158 87 7 7 -224 -28 -284 -44 l-26 -6 -6 103 c-3 57 -10 144 -16 193 -16 141 -31 498 -31 745 1 542 55 1115 149 1555 70 325 143 619 213 849 l33 109 105 18 c140 24 363 82 442 115 85 35 242 122 358 198 329 215 597 514 771 858 40 79 136 319 215 540 210 584 294 992 294 1422 0 433 -70 945 -217 1596 -119 529 -143 672 -143 843 1 235 68 427 183 518 26 21 48 42 48 46 1 13 -131 53 -296 88 -88 19 -288 73 -445 120 -157 46 -341 96 -410 109 -328 65 -897 100 -1295 79z m516 -193 c439 -25 833 -92 1036 -177 68 -29 236 -123 230 -129 -11 -11 -530 -182 -802 -263 -637 -192 -842 -244 -1145 -291 -218 -34 -361 -41 -603 -30 -449 21 -716 65 -1007 165 -151 53 -363 164 -375 198 -3 6 -2 32 3 56 7 44 8 45 67 63 461 140 1221 325 1507 368 298 44 728 60 1089 40z m1453 -505 c-8 -33 -18 -126 -21 -206 -8 -206 5 -305 91 -659 91 -378 171 -817 201 -1100 28 -264 44 -661 29 -717 -6 -21 -6 -21 -38 -3 -102 61 -480 184 -703 229 -343 69 -863 132 -1338 161 -307 18 -1239 31 -1515 20 -437 -17 -634 -41 -1093 -132 -59 -11 -110 -18 -113 -15 -6 6 11 288 27 437 36 339 96 674 209 1155 32 138 66 291 75 340 23 125 21 120 50 96 30 -22 198 -80 327 -110 210 -51 468 -83 798 -102 544 -30 856 35 2295 480 281 87 456 134 605 161 62 11 116 22 118 25 11 11 10 -2 -4 -60z m276 -2960 c0 -2 -10 -10 -22 -16 -21 -11 -22 -11 -9 4 13 16 31 23 31 12z m-2665 -2896 c77 -5 230 -13 341 -16 l201 -6 -38 -118 c-118 -360 -271 -1114 -332 -1629 -9 -73 -16 -106 -20 -90 -3 14 -58 315 -122 670 -125 694 -178 946 -230 1108 l-33 104 46 -6 c26 -4 110 -11 187 -17z"/>
</g>
</svg>